<svg xmlns="http://www.w3.org/2000/svg" width="123" height="15" viewBox="0 0 123 15">
    <path fill="#FFF" fill-rule="nonzero" d="M6.738 5.595c.63.149 1.126.457 1.49.923a2.56 2.56 0 0 1 .547 1.622c0 .913-.305 1.62-.914 2.12-.609.501-1.482.752-2.62.752H0V.476h5.121c1.068 0 1.904.233 2.508.7.604.466.906 1.14.906 2.023 0 .625-.165 1.149-.494 1.57-.33.422-.764.697-1.303.826zM2.95 4.688h1.482c.739 0 1.108-.308 1.108-.923 0-.635-.374-.953-1.123-.953H2.95v1.876zM4.612 8.66c.769 0 1.153-.318 1.153-.953 0-.654-.384-.982-1.153-.982H2.95v1.935h1.662zm9.374-6.101c.838 0 1.59.17 2.253.513a3.789 3.789 0 0 1 1.565 1.488c.38.65.57 1.406.57 2.27 0 .872-.19 1.631-.57 2.276-.38.645-.9 1.141-1.565 1.488-.664.347-1.415.521-2.253.521-.839 0-1.592-.174-2.261-.52a3.84 3.84 0 0 1-1.573-1.489c-.379-.645-.569-1.404-.569-2.277 0-.873.19-1.632.57-2.276a3.791 3.791 0 0 1 1.572-1.481c.669-.342 1.422-.513 2.26-.513zm0 2.53c-.41 0-.749.148-1.018.446-.27.297-.405.729-.405 1.294 0 .576.135 1.012.405 1.31.27.298.608.446 1.018.446.4 0 .733-.151 1.003-.454.27-.302.404-.736.404-1.302 0-.565-.134-.997-.404-1.294a1.299 1.299 0 0 0-1.003-.447zm9.538-2.53c.839 0 1.59.17 2.254.513a3.789 3.789 0 0 1 1.565 1.488c.379.65.569 1.406.569 2.27 0 .872-.19 1.631-.57 2.276-.379.645-.9 1.141-1.564 1.488s-1.415.521-2.254.521c-.838 0-1.592-.174-2.26-.52a3.84 3.84 0 0 1-1.573-1.489c-.38-.645-.57-1.404-.57-2.277 0-.873.19-1.632.57-2.276a3.791 3.791 0 0 1 1.572-1.481c.669-.342 1.423-.513 2.261-.513zm0 2.53c-.41 0-.748.148-1.018.446-.27.297-.404.729-.404 1.294 0 .576.134 1.012.404 1.31.27.298.609.446 1.018.446.4 0 .734-.151 1.003-.454.27-.302.405-.736.405-1.302 0-.565-.135-.997-.405-1.294a1.299 1.299 0 0 0-1.003-.447zm10.572 3.422v2.5h-1.213c-1.028 0-1.832-.253-2.41-.759-.58-.506-.87-1.344-.87-2.515V5.104h-1.077v-2.44h1.078V.64h2.95v2.024h1.512v2.44h-1.512v2.694c0 .258.057.441.172.55.115.11.307.164.576.164h.794zm4.537-5.952c1.108 0 1.992.267 2.65.803.66.536 1.074 1.245 1.243 2.128h-2.755c-.07-.298-.212-.52-.427-.67a1.346 1.346 0 0 0-.786-.223c-.22 0-.387.047-.501.142a.482.482 0 0 0-.173.394c0 .208.123.365.367.469.245.104.647.22 1.206.35.648.138 1.185.287 1.61.446.424.159.793.416 1.107.774.315.357.472.838.472 1.443 0 .486-.135.918-.404 1.295-.27.377-.662.672-1.176.885-.514.213-1.12.32-1.819.32-1.178 0-2.116-.253-2.815-.759-.699-.506-1.123-1.23-1.273-2.172h2.83c.04.307.172.535.397.684.225.149.507.223.846.223.23 0 .404-.05.524-.149.12-.099.18-.228.18-.386 0-.239-.128-.412-.382-.521-.255-.11-.661-.219-1.22-.328a10.468 10.468 0 0 1-1.573-.424 2.68 2.68 0 0 1-1.07-.744c-.305-.342-.457-.816-.457-1.421 0-.754.294-1.369.883-1.845.59-.476 1.428-.714 2.516-.714zm10.302 5.952v2.5h-1.213c-1.028 0-1.832-.253-2.41-.759-.58-.506-.869-1.344-.869-2.515V5.104h-1.078v-2.44h1.078V.64h2.95v2.024h1.512v2.44h-1.512v2.694c0 .258.057.441.172.55.115.11.307.164.577.164h.793zm4.298-4.286c.33-.496.743-.893 1.243-1.19a3.05 3.05 0 0 1 1.587-.447v3.125h-.854c-.659 0-1.153.127-1.482.38-.33.253-.494.692-.494 1.317v3.6h-2.95V2.665h2.95v1.562zM60.15 2.56c.589 0 1.1.126 1.535.379.434.253.756.603.965 1.05V2.663h2.935v8.348h-2.935V9.687c-.21.447-.531.797-.965 1.05-.435.253-.946.38-1.535.38a3.31 3.31 0 0 1-1.812-.514c-.54-.343-.963-.839-1.273-1.488-.31-.65-.464-1.412-.464-2.285 0-.873.155-1.632.464-2.276.31-.645.734-1.139 1.273-1.481a3.31 3.31 0 0 1 1.812-.513zm.973 2.559c-.46 0-.831.151-1.116.454-.284.302-.426.722-.426 1.257 0 .546.142.97.426 1.273.285.302.657.454 1.116.454.44 0 .804-.154 1.093-.462.29-.307.434-.729.434-1.265 0-.525-.144-.942-.434-1.25a1.438 1.438 0 0 0-1.093-.461zm11.515-2.56a3.31 3.31 0 0 1 1.812.514c.539.342.963.836 1.273 1.48.31.645.464 1.404.464 2.277 0 .873-.155 1.635-.464 2.285-.31.65-.734 1.145-1.273 1.488a3.31 3.31 0 0 1-1.812.513c-.589 0-1.098-.126-1.527-.38a2.355 2.355 0 0 1-.959-1.049V15h-2.95V2.664h2.95v1.324c.21-.446.53-.796.959-1.049.429-.253.938-.38 1.527-.38zm-.973 2.56c-.44 0-.804.154-1.093.461-.29.308-.435.725-.435 1.25 0 .536.145.958.435 1.265.29.308.654.462 1.093.462.459 0 .83-.152 1.115-.454.285-.303.427-.727.427-1.273 0-.535-.142-.955-.427-1.257-.284-.303-.656-.454-1.115-.454zm18.208.595c0 1.022-.224 1.932-.674 2.73a4.812 4.812 0 0 1-1.916 1.883c-.829.457-1.802.685-2.92.685H80.14V.476h4.223c1.118 0 2.094.22 2.927.662a4.62 4.62 0 0 1 1.917 1.853c.444.794.666 1.701.666 2.723zm-5.78 2.679c.869 0 1.553-.233 2.052-.7.499-.466.748-1.126.748-1.979 0-.843-.25-1.5-.748-1.971-.5-.472-1.183-.707-2.052-.707h-1.003v5.357h1.003zM94.307 2.56c.589 0 1.1.126 1.534.379.435.253.757.603.966 1.05V2.663h2.935v8.348h-2.935V9.687c-.21.447-.531.797-.966 1.05-.434.253-.945.38-1.534.38a3.31 3.31 0 0 1-1.812-.514c-.54-.343-.964-.839-1.273-1.488-.31-.65-.464-1.412-.464-2.285 0-.873.154-1.632.464-2.276.31-.645.734-1.139 1.273-1.481a3.31 3.31 0 0 1 1.812-.513zm.973 2.559c-.46 0-.831.151-1.116.454-.284.302-.426.722-.426 1.257 0 .546.142.97.426 1.273.285.302.657.454 1.116.454.44 0 .803-.154 1.093-.462.29-.307.434-.729.434-1.265 0-.525-.145-.942-.434-1.25a1.438 1.438 0 0 0-1.093-.461zm9.269-2.56c1.108 0 1.991.268 2.65.804.659.536 1.073 1.245 1.243 2.128h-2.755c-.07-.298-.212-.52-.427-.67a1.346 1.346 0 0 0-.786-.223c-.22 0-.387.047-.502.142a.482.482 0 0 0-.172.394c0 .208.122.365.367.469.245.104.646.22 1.205.35.65.138 1.186.287 1.61.446.424.159.794.416 1.108.774.315.357.472.838.472 1.443 0 .486-.135.918-.404 1.295-.27.377-.662.672-1.176.885-.514.213-1.12.32-1.82.32-1.177 0-2.116-.253-2.814-.759-.7-.506-1.123-1.23-1.273-2.172h2.83c.04.307.172.535.397.684.224.149.506.223.846.223.23 0 .404-.05.524-.149.12-.099.18-.228.18-.386 0-.239-.128-.412-.382-.521-.255-.11-.662-.219-1.22-.328a10.468 10.468 0 0 1-1.573-.424 2.68 2.68 0 0 1-1.07-.744c-.305-.342-.457-.816-.457-1.421 0-.754.294-1.369.883-1.845.59-.476 1.428-.714 2.516-.714zm10.916.03c.968 0 1.727.32 2.276.96.549.64.823 1.51.823 2.612v4.85h-2.92V6.534c0-.486-.127-.866-.381-1.139-.255-.272-.597-.409-1.026-.409-.44 0-.789.141-1.048.424-.26.283-.39.672-.39 1.168v4.435h-2.95V0h2.95v4.063a2.71 2.71 0 0 1 1.049-1.072c.459-.268.998-.402 1.617-.402zm7.262 5.566v2.857h-2.98V8.155h2.98z"/>
</svg>
